<?xml version="1.0" encoding="UTF-8" standalone="no"?>
<svg
   xmlns:dc="http://purl.org/dc/elements/1.1/"
   xmlns:cc="http://creativecommons.org/ns#"
   xmlns:rdf="http://www.w3.org/1999/02/22-rdf-syntax-ns#"
   xmlns:svg="http://www.w3.org/2000/svg"
   xmlns="http://www.w3.org/2000/svg"
   xmlns:sodipodi="http://sodipodi.sourceforge.net/DTD/sodipodi-0.dtd"
   xmlns:inkscape="http://www.inkscape.org/namespaces/inkscape"
   width="471pt"
   height="675pt"
   viewBox="0 0 471 675"
   version="1.1"
   id="svg3422"
   inkscape:version="0.91 r13725"
   sodipodi:docname="wormieBig.svg">
  <metadata
     id="metadata3468">
    <rdf:RDF>
      <cc:Work
         rdf:about="">
        <dc:format>image/svg+xml</dc:format>
        <dc:type
           rdf:resource="http://purl.org/dc/dcmitype/StillImage" />
        <dc:title></dc:title>
      </cc:Work>
    </rdf:RDF>
  </metadata>
  <defs
     id="defs3466" />
  <sodipodi:namedview
     pagecolor="#ffffff"
     bordercolor="#666666"
     borderopacity="1"
     objecttolerance="10"
     gridtolerance="10"
     guidetolerance="10"
     inkscape:pageopacity="0"
     inkscape:pageshadow="2"
     inkscape:window-width="1571"
     inkscape:window-height="1009"
     id="namedview3464"
     showgrid="false"
     inkscape:zoom="0.94696296"
     inkscape:cx="294.375"
     inkscape:cy="421.875"
     inkscape:window-x="59"
     inkscape:window-y="0"
     inkscape:window-maximized="0"
     inkscape:current-layer="svg3422" />
  <path
     fill="#fffefe"
     d=" M 0.00 0.00 L 471.00 0.00 L 471.00 675.00 L 0.00 675.00 L 0.00 242.06 L 1.34 240.65 C 1.92 247.03 0.51 253.62 2.27 259.85 C 2.41 262.85 2.28 265.92 3.17 268.83 C 3.38 271.19 3.46 273.61 4.30 275.86 C 4.37 277.51 4.42 279.18 4.45 280.84 L 5.58 280.19 C 5.50 282.09 5.43 283.99 5.35 285.90 L 6.62 285.13 C 6.49 286.49 6.37 287.85 6.25 289.21 C 10.37 293.08 9.47 299.15 10.91 304.16 C 13.07 311.88 13.66 320.18 17.79 327.21 C 19.28 329.80 19.18 332.92 20.46 335.59 C 23.70 342.33 27.18 348.96 30.08 355.86 C 30.13 356.46 30.23 357.65 30.27 358.24 C 33.19 362.53 34.41 367.63 36.24 372.41 C 37.01 374.38 37.45 376.62 39.16 378.04 C 39.66 379.17 40.14 380.32 40.61 381.48 C 41.32 382.81 42.03 384.15 42.71 385.51 C 43.60 387.49 44.64 389.43 46.11 391.06 C 47.78 394.15 48.48 398.11 51.68 400.09 C 51.49 400.46 51.10 401.22 50.91 401.59 L 52.19 401.42 C 52.68 403.49 53.35 405.66 55.15 407.00 C 55.80 408.85 56.59 410.69 58.11 412.02 C 58.85 413.83 59.55 415.75 61.14 417.02 C 63.09 421.52 65.15 426.00 68.01 430.02 C 90.29 466.43 113.99 501.95 137.95 537.26 C 153.79 560.55 170.25 583.44 186.20 606.66 C 194.62 618.52 202.85 630.54 211.74 642.07 C 219.25 653.26 227.48 663.93 235.28 674.91 C 254.36 650.59 272.83 625.80 290.73 600.58 C 302.18 583.79 313.83 567.12 325.32 550.35 C 336.37 533.35 347.65 516.49 358.15 499.14 C 358.14 498.51 358.14 497.26 358.14 496.64 C 367.90 482.26 376.54 467.11 385.08 451.98 C 387.59 446.40 391.66 441.73 394.24 436.19 C 395.92 432.41 398.84 429.44 401.06 426.01 C 411.33 406.97 421.15 387.69 430.15 368.02 C 429.94 367.62 429.53 366.81 429.32 366.41 C 432.30 360.09 434.93 353.62 437.97 347.33 C 438.02 346.89 438.12 345.99 438.17 345.55 C 438.80 344.49 439.43 343.44 440.08 342.39 C 440.08 341.89 440.09 340.90 440.09 340.41 C 440.61 339.95 441.63 339.03 442.15 338.57 C 442.14 338.07 442.12 337.06 442.11 336.56 C 442.76 335.51 443.41 334.45 444.07 333.40 C 444.09 332.94 444.12 332.01 444.14 331.55 C 444.76 330.50 445.39 329.46 446.02 328.42 C 446.09 327.98 446.23 327.08 446.31 326.64 C 446.65 325.60 446.98 324.57 447.31 323.53 C 447.86 322.47 448.42 321.42 448.99 320.38 C 449.06 319.94 449.20 319.06 449.27 318.62 C 449.67 317.61 450.07 316.61 450.46 315.60 C 450.73 314.57 451.00 313.54 451.27 312.52 C 451.85 311.46 452.43 310.42 453.03 309.38 C 453.09 308.46 453.16 307.54 453.24 306.64 C 453.65 305.62 454.06 304.61 454.46 303.60 C 454.73 302.57 455.00 301.55 455.27 300.52 C 455.84 299.47 456.43 298.42 457.01 297.37 C 457.07 296.95 457.17 296.10 457.22 295.67 C 459.36 294.28 459.77 291.66 460.57 289.43 C 464.08 278.66 466.97 267.66 468.70 256.46 C 471.51 238.07 470.09 219.31 467.40 201.00 C 465.25 186.80 461.65 172.84 456.95 159.27 C 455.37 152.27 452.48 145.68 449.53 139.16 C 443.60 126.63 437.09 114.29 428.89 103.08 C 427.15 101.51 425.61 99.74 424.29 97.82 C 397.54 60.85 359.83 31.93 317.18 15.69 C 291.62 5.91 264.28 1.01 236.95 0.64 C 201.80 0.71 167.15 10.38 135.65 25.62 C 91.58 47.07 53.09 81.04 29.05 124.00 C 11.13 155.71 1.87 191.89 0.49 228.18 C 0.67 229.52 1.32 230.75 1.75 232.03 C 1.31 232.30 0.44 232.83 0.00 233.10 L 0.00 0.00 Z"
     id="path3424" />
  <path
     fill="#fe0101"
     d=" M 135.65 25.62 C 167.15 10.38 201.80 0.71 236.95 0.64 C 264.28 1.01 291.62 5.91 317.18 15.69 C 359.83 31.93 397.54 60.85 424.29 97.82 C 425.61 99.74 427.15 101.51 428.89 103.08 C 437.09 114.29 443.60 126.63 449.53 139.16 C 452.48 145.68 455.37 152.27 456.95 159.27 C 461.65 172.84 465.25 186.80 467.40 201.00 C 470.09 219.31 471.51 238.07 468.70 256.46 C 466.97 267.66 464.08 278.66 460.57 289.43 C 459.77 291.66 459.36 294.28 457.22 295.67 C 457.17 296.10 457.07 296.95 457.01 297.37 C 456.43 298.42 455.84 299.47 455.27 300.52 C 455.00 301.55 454.73 302.57 454.46 303.60 C 454.06 304.61 453.65 305.62 453.24 306.64 C 453.16 307.54 453.09 308.46 453.03 309.38 C 452.43 310.42 451.85 311.46 451.27 312.52 C 451.00 313.54 450.73 314.57 450.46 315.60 C 450.07 316.61 449.67 317.61 449.27 318.62 C 449.20 319.06 449.06 319.94 448.99 320.38 C 448.42 321.42 447.86 322.47 447.31 323.53 C 446.98 324.57 446.65 325.60 446.31 326.64 C 446.23 327.08 446.09 327.98 446.02 328.42 C 445.39 329.46 444.76 330.50 444.14 331.55 C 444.12 332.01 444.09 332.94 444.07 333.40 C 443.41 334.45 442.76 335.51 442.11 336.56 C 442.12 337.06 442.14 338.07 442.15 338.57 C 441.63 339.03 440.61 339.95 440.09 340.41 C 440.09 340.90 440.08 341.89 440.08 342.39 C 439.43 343.44 438.80 344.49 438.17 345.55 C 438.12 345.99 438.02 346.89 437.97 347.33 C 434.93 353.62 432.30 360.09 429.32 366.41 C 429.53 366.81 429.94 367.62 430.15 368.02 C 421.15 387.69 411.33 406.97 401.06 426.01 C 398.84 429.44 395.92 432.41 394.24 436.19 C 391.66 441.73 387.59 446.40 385.08 451.98 C 376.54 467.11 367.90 482.26 358.14 496.64 C 358.14 497.26 358.14 498.51 358.15 499.14 C 347.65 516.49 336.37 533.35 325.32 550.35 C 313.83 567.12 302.18 583.79 290.73 600.58 C 272.83 625.80 254.36 650.59 235.28 674.91 C 227.48 663.93 219.25 653.26 211.74 642.07 C 202.85 630.54 194.62 618.52 186.20 606.66 C 170.25 583.44 153.79 560.55 137.95 537.26 C 113.99 501.95 90.29 466.43 68.01 430.02 C 65.15 426.00 63.09 421.52 61.14 417.02 C 59.55 415.75 58.85 413.83 58.11 412.02 C 56.59 410.69 55.80 408.85 55.15 407.00 C 53.35 405.66 52.68 403.49 52.19 401.42 L 50.91 401.59 C 51.10 401.22 51.49 400.46 51.68 400.09 C 48.48 398.11 47.78 394.15 46.11 391.06 C 44.64 389.43 43.60 387.49 42.71 385.51 C 42.03 384.15 41.32 382.81 40.61 381.48 C 40.14 380.32 39.66 379.17 39.16 378.04 C 37.45 376.62 37.01 374.38 36.24 372.41 C 34.41 367.63 33.19 362.53 30.27 358.24 C 30.23 357.65 30.13 356.46 30.08 355.86 C 27.18 348.96 23.70 342.33 20.46 335.59 C 19.18 332.92 19.28 329.80 17.79 327.21 C 13.66 320.18 13.07 311.88 10.91 304.16 C 9.47 299.15 10.37 293.08 6.25 289.21 C 6.37 287.85 6.49 286.49 6.62 285.13 L 5.35 285.90 C 5.43 283.99 5.50 282.09 5.58 280.19 L 4.45 280.84 C 4.42 279.18 4.37 277.51 4.30 275.86 C 3.46 273.61 3.38 271.19 3.17 268.83 C 2.28 265.92 2.41 262.85 2.27 259.85 C 0.51 253.62 1.92 247.03 1.34 240.65 L 0.00 242.06 L 0.00 233.10 C 0.44 232.83 1.31 232.30 1.75 232.03 C 1.32 230.75 0.67 229.52 0.49 228.18 C 1.87 191.89 11.13 155.71 29.05 124.00 C 53.09 81.04 91.58 47.07 135.65 25.62 Z"
     id="path3426" />
  <path
     fill="#2a7f01"
     d=" M 218.42 110.85 C 218.80 110.68 219.57 110.32 219.95 110.14 C 227.63 109.77 235.34 110.14 243.03 109.97 C 245.23 110.06 247.63 109.58 249.59 110.87 C 252.24 111.14 255.11 110.50 257.58 111.76 C 259.25 111.96 260.97 112.04 262.57 112.67 C 263.91 112.98 265.28 113.25 266.57 113.78 C 267.50 113.92 268.44 114.07 269.38 114.21 C 271.06 114.81 272.80 115.19 274.53 115.64 C 275.54 116.01 276.54 116.40 277.54 116.83 C 278.02 116.89 279.00 117.03 279.49 117.09 C 280.48 117.70 281.48 118.32 282.47 118.93 C 282.98 118.96 283.99 119.04 284.50 119.08 C 285.48 119.69 286.47 120.30 287.46 120.92 C 287.96 120.97 288.95 121.07 289.44 121.12 C 293.77 123.58 298.42 125.43 302.54 128.25 C 309.27 132.42 316.13 136.62 321.78 142.24 C 333.94 151.52 342.81 164.29 350.98 177.06 C 353.38 181.50 355.38 186.16 357.88 190.55 C 357.93 191.05 358.03 192.04 358.08 192.53 C 358.68 193.52 359.29 194.51 359.90 195.50 C 359.97 195.99 360.12 196.97 360.19 197.46 C 360.58 198.45 360.96 199.46 361.33 200.47 C 361.68 201.47 362.02 202.46 362.37 203.47 C 362.72 204.78 363.02 206.12 363.30 207.46 C 363.77 209.18 364.19 210.93 364.79 212.62 C 364.92 213.55 365.07 214.48 365.23 215.42 C 366.47 217.67 365.46 220.45 366.86 222.66 C 367.17 225.31 366.41 228.23 367.85 230.64 C 368.07 237.87 368.07 245.12 367.86 252.36 C 365.89 255.47 368.08 259.45 366.18 262.59 C 366.02 264.59 366.10 266.67 365.34 268.57 C 365.00 269.90 364.72 271.25 364.34 272.57 C 364.01 273.90 363.72 275.24 363.33 276.56 C 363.02 277.89 362.73 279.22 362.39 280.55 C 362.01 281.54 361.61 282.54 361.20 283.53 C 361.09 284.00 360.87 284.93 360.76 285.40 C 360.40 286.43 360.07 287.47 359.76 288.51 C 359.21 289.50 358.66 290.50 358.11 291.49 C 358.06 291.99 357.94 292.98 357.88 293.48 C 356.95 295.14 356.05 296.83 355.11 298.50 C 355.06 298.99 354.95 299.97 354.89 300.47 C 353.60 302.88 352.19 305.22 350.72 307.53 C 349.59 309.97 348.19 312.27 346.75 314.53 C 343.93 319.89 339.74 324.33 336.14 329.15 C 334.09 331.72 331.33 333.68 329.61 336.54 C 328.25 338.88 325.68 339.97 323.75 341.75 C 316.73 348.98 308.46 355.06 299.52 359.72 C 296.64 361.69 293.52 363.24 290.44 364.87 C 289.96 364.93 288.98 365.06 288.50 365.12 C 286.83 366.05 285.13 366.94 283.47 367.87 C 282.98 367.95 282.02 368.11 281.54 368.19 C 280.54 368.58 279.53 368.97 278.53 369.34 C 277.53 369.67 276.53 370.00 275.52 370.32 C 274.52 370.65 273.52 370.98 272.51 371.30 C 271.52 371.66 270.53 372.02 269.54 372.37 C 268.21 372.71 266.89 373.00 265.57 373.33 C 263.97 373.94 262.25 374.03 260.57 374.24 C 258.32 375.49 255.54 374.46 253.35 375.86 C 250.36 376.26 247.08 375.29 244.35 376.86 C 237.45 377.07 230.54 377.06 223.65 376.85 C 221.23 375.41 218.31 376.17 215.65 375.86 C 213.46 374.46 210.68 375.47 208.43 374.24 C 206.75 374.02 205.02 373.97 203.43 373.33 C 202.10 373.01 200.77 372.73 199.46 372.39 C 198.46 372.02 197.46 371.64 196.47 371.27 C 195.10 371.02 193.72 370.77 192.43 370.23 C 191.95 370.15 190.98 369.97 190.50 369.89 C 189.51 369.29 188.52 368.70 187.54 368.11 C 187.05 368.03 186.09 367.87 185.61 367.79 C 184.58 367.41 183.56 367.06 182.53 366.73 C 180.20 365.59 177.88 364.44 175.58 363.26 C 173.87 362.41 172.15 361.57 170.41 360.77 C 168.75 359.79 167.13 358.74 165.47 357.75 C 158.52 353.87 152.37 348.76 146.24 343.74 C 141.62 339.03 136.83 334.47 132.29 329.68 C 126.52 321.96 120.35 314.36 116.30 305.55 C 115.46 303.71 114.47 301.94 113.12 300.44 C 113.06 299.95 112.94 298.98 112.89 298.50 C 111.95 296.82 111.06 295.13 110.13 293.46 C 110.05 292.98 109.89 292.03 109.80 291.55 C 109.41 290.54 109.03 289.54 108.66 288.53 C 108.32 287.53 108.00 286.52 107.69 285.52 C 107.35 284.52 107.01 283.52 106.69 282.52 C 106.33 281.52 105.98 280.53 105.63 279.53 C 105.27 278.22 104.97 276.89 104.67 275.56 C 104.27 274.25 103.99 272.90 103.66 271.57 C 102.89 269.67 102.97 267.59 102.81 265.59 C 101.24 263.07 102.79 259.85 101.14 257.36 C 100.90 248.13 100.91 238.88 101.13 229.65 C 102.97 226.87 101.10 223.27 102.76 220.42 C 102.95 218.74 103.06 217.03 103.67 215.43 C 103.99 214.09 104.27 212.75 104.66 211.43 C 104.98 210.09 105.27 208.75 105.66 207.43 C 105.97 206.10 106.28 204.78 106.64 203.46 C 106.97 202.46 107.31 201.47 107.67 200.48 C 108.03 199.46 108.41 198.45 108.80 197.45 C 108.88 196.98 109.05 196.02 109.13 195.54 C 110.06 193.86 110.95 192.17 111.88 190.50 C 111.94 190.02 112.07 189.04 112.13 188.56 C 114.56 184.22 116.44 179.58 119.25 175.46 C 120.21 173.78 121.25 172.14 122.22 170.46 C 133.41 153.17 148.64 138.59 166.46 128.25 C 168.73 126.82 171.02 125.42 173.44 124.25 C 175.53 123.31 177.57 122.26 179.56 121.12 C 180.05 121.07 181.04 120.97 181.54 120.92 C 182.52 120.31 183.51 119.69 184.50 119.08 C 185.01 119.04 186.02 118.97 186.53 118.93 C 187.52 118.31 188.51 117.70 189.50 117.09 C 189.99 117.03 190.97 116.89 191.46 116.83 C 192.45 116.41 193.46 116.01 194.47 115.65 C 196.19 115.19 197.94 114.80 199.62 114.21 C 200.55 114.07 201.49 113.93 202.43 113.78 C 203.71 113.23 205.08 112.98 206.43 112.66 C 208.46 111.98 210.68 112.12 212.63 111.17 C 214.55 111.03 216.49 110.97 218.42 110.85 Z"
     id="path3428" />
  <path
     fill="#010100"
     d=" M 224.27 141.40 C 239.90 139.95 255.82 141.99 270.59 147.31 C 294.13 156.12 314.65 173.52 325.73 196.23 C 332.47 208.49 335.60 222.45 336.62 236.32 C 337.50 242.59 336.42 248.87 335.79 255.10 C 332.02 288.07 311.07 318.33 281.87 333.93 C 271.66 339.49 260.40 342.83 248.95 344.68 C 241.64 345.27 234.30 346.69 226.98 345.36 C 200.99 343.99 176.26 331.29 158.66 312.36 C 142.54 294.21 132.29 270.45 132.06 246.03 C 131.11 217.89 142.42 189.31 163.14 170.10 C 179.27 153.71 201.50 143.83 224.27 141.40 Z"
     id="path3430" />
  <path
     fill="#2a7f01"
     d=" M 270.43 191.46 C 279.12 188.49 288.89 196.00 289.17 204.96 C 289.52 213.04 282.13 220.47 274.06 220.17 C 266.32 219.92 259.51 212.75 259.83 204.98 C 260.10 198.84 264.61 193.30 270.43 191.46 Z"
     id="path3432" />
  <path
     fill="#010100"
     d=" M 196.35 428.00 C 194.98 424.31 199.22 420.16 202.94 420.28 C 223.30 420.31 243.65 420.29 264.01 420.30 C 268.95 420.48 274.03 419.67 278.84 421.18 C 281.52 424.67 280.26 428.80 279.69 432.74 C 279.38 433.10 278.75 433.82 278.44 434.18 L 278.28 434.35 L 278.23 434.60 C 278.05 435.30 277.70 436.71 277.52 437.41 C 277.51 437.44 277.48 437.51 277.47 437.55 L 276.58 439.43 C 276.55 439.48 276.51 439.56 276.49 439.60 L 275.56 441.32 C 275.55 441.35 275.51 441.41 275.49 441.44 C 272.00 447.95 266.68 453.37 260.52 457.38 C 260.49 457.40 260.43 457.43 260.40 457.45 C 259.08 458.11 257.76 458.77 256.43 459.41 C 256.39 459.44 256.30 459.48 256.26 459.50 L 254.65 460.34 C 254.56 460.44 254.39 460.65 254.31 460.75 L 253.91 462.00 C 252.57 460.67 250.97 461.32 249.66 462.29 C 249.58 462.38 249.41 462.58 249.32 462.68 L 248.73 464.13 C 247.40 463.69 246.07 463.24 244.74 462.82 C 243.68 462.36 242.81 462.60 242.13 463.55 L 241.62 464.14 C 236.80 464.25 232.10 463.07 227.32 462.87 C 227.00 462.39 226.38 461.43 226.07 460.94 C 225.09 461.29 224.11 461.65 223.14 462.02 C 222.92 461.59 222.49 460.72 222.28 460.29 C 220.31 459.52 218.40 458.59 216.55 457.59 C 216.51 457.57 216.45 457.54 216.41 457.52 C 211.80 454.70 207.92 450.77 204.59 446.54 C 204.57 446.52 204.53 446.47 204.51 446.44 C 204.00 445.72 202.98 444.27 202.46 443.55 C 202.44 443.52 202.41 443.46 202.39 443.43 C 200.16 440.28 199.40 436.36 197.02 433.32 C 197.06 432.16 197.14 431.00 197.25 429.86 C 197.02 429.39 196.57 428.46 196.35 428.00 Z"
     id="path3434" />
  <path
     fill="#2a7f01"
     d=" M 196.35 428.00 C 196.57 428.46 197.02 429.39 197.25 429.86 L 196.36 429.73 L 195.90 428.78 L 196.35 428.00 Z"
     id="path3436" />
  <path
     fill="#2a7f01"
     d=" M 278.28 434.35 L 278.44 434.18 C 278.39 434.28 278.28 434.49 278.23 434.60 L 278.28 434.35 Z"
     id="path3438" />
  <path
     fill="#2a7f01"
     d=" M 277.47 437.55 C 277.48 437.51 277.51 437.44 277.52 437.41 C 277.51 437.44 277.48 437.51 277.47 437.55 Z"
     id="path3440" />
  <path
     fill="#2a7f01"
     d=" M 276.49 439.60 C 276.51 439.56 276.55 439.48 276.58 439.43 C 276.55 439.48 276.51 439.56 276.49 439.60 Z"
     id="path3442" />
  <path
     fill="#2a7f01"
     d=" M 275.49 441.44 C 275.51 441.41 275.55 441.35 275.56 441.32 C 275.55 441.35 275.51 441.41 275.49 441.44 Z"
     id="path3444" />
  <path
     fill="#2a7f01"
     d=" M 202.39 443.43 C 202.41 443.46 202.44 443.52 202.46 443.55 C 202.44 443.52 202.41 443.46 202.39 443.43 Z"
     id="path3446" />
  <path
     fill="#2a7f01"
     d=" M 204.51 446.44 C 204.53 446.47 204.57 446.52 204.59 446.54 C 204.57 446.52 204.53 446.47 204.51 446.44 Z"
     id="path3448" />
  <path
     fill="#2a7f01"
     d=" M 216.41 457.52 C 216.45 457.54 216.51 457.57 216.55 457.59 C 216.51 457.57 216.45 457.54 216.41 457.52 Z"
     id="path3450" />
  <path
     fill="#2a7f01"
     d=" M 260.40 457.45 C 260.43 457.43 260.49 457.40 260.52 457.38 C 260.49 457.40 260.43 457.43 260.40 457.45 Z"
     id="path3452" />
  <path
     fill="#2a7f01"
     d=" M 256.26 459.50 C 256.30 459.48 256.39 459.44 256.43 459.41 C 256.39 459.44 256.30 459.48 256.26 459.50 Z"
     id="path3454" />
  <path
     fill="#2a7f01"
     d=" M 222.28 460.29 C 222.49 460.72 222.92 461.59 223.14 462.02 C 222.82 461.77 222.18 461.28 221.86 461.04 L 222.28 460.29 Z"
     id="path3456" />
  <path
     fill="#2a7f01"
     d=" M 254.31 460.75 C 254.39 460.65 254.56 460.44 254.65 460.34 C 254.56 460.44 254.39 460.65 254.31 460.75 Z"
     id="path3458" />
  <path
     fill="#2a7f01"
     d=" M 249.32 462.68 C 249.41 462.58 249.58 462.38 249.66 462.29 C 249.58 462.38 249.41 462.58 249.32 462.68 Z"
     id="path3460" />
  <path
     fill="#2a7f01"
     d=" M 242.13 463.55 C 242.81 462.60 243.68 462.36 244.74 462.82 C 244.32 464.34 243.45 464.58 242.13 463.55 Z"
     id="path3462" />
</svg>
